<?xml version="1.0" encoding="UTF-8"?>
<svg version="1.1" viewBox="0 0 1024 1024" width="1024" height="1024" xmlns="http://www.w3.org/2000/svg">
<path transform="translate(529,169)" d="m0 0h9l12 5 15 8 20 9 19 11 19 14 12 11 8 8 10 14 8 14 8 18 13 12 10 10 9 11 10 12 12 18 5 9 4-2 11-12 8-9 9-11 15-16 9-11 11-12 7-7 9-11 13-15 6-8 3-6 3-2h5l2 2v5l-13 16-9 10-7 8-11 12-12 14-13 16-9 10-9 11-12 13-9 10-4 5 1 8 9 17 15-16 8-8 7-8 12-14 9-10 7-8 11-12 10-13 6-8 6-6h6l2 2v6l-11 11-8 10-13 14-7 8-9 10-9 11-13 14-7 8-9 10-7 8-2 5 7 22 16-16 7-8 14-15 8-9 12-12 8-10 12-12 6-7 6 1 1 7-7 8-19 19-7 8-10 10-7 8-12 14-10 10-7 8-9 10-1 4 2 14v7l8-7 15-15 7-8 21-21 7-8 8-8 7-8 5-4h5l2 2-1 7-11 11-8 7-12 13-18 18-7 8-12 13-13 13-3 4-2 28-3 24-5 23-9 26-12 24-18 27-4 5 1 4 28 28 8 7 10 10 7 4 7 1 9-4 22-24 7-8 6-7 6-4 3 1-10 12-7 8-13 13-7 8-6 8-1 3 1 1 23 2v1l-26 1v4l7 9 14 15 10 9 12 11 6 7 7 6 7 8 9 9 1 3-4-2-13-12-9-9-8-7-16-16-8-7-21-21-6 1-6 5-7 8-6 6-2-1 7-9 7-10v-10l-6-9-9-10-28-28-7-8-4-1-9 11-17 17-8 7-17 13-18 11-23 12-19 8-18 5-33 7-20 2h-13l-30-3-22-4-22-6-15-6-16-8-17-9-10-8h-6l-13 8-4 1-2 12-6 8-7 4-7-1-5-3-5 1-16 13-9 8-7 8-13 12-3-1 1-6 6-8 9-11 13-12 14-11 3-3 4-10 5-5 5-2h14l8-6 5-2v-3l-3-1-8-13-4-2-20 10-13 8-24 15-14 10-18 14-13 10-7 8-5 5-8 3-5 6h-6l-1-6 2-2 8-1 18-22 10-9 11-8 20-15 19-12 20-13 6-4-2-5-5-11v-3l-16 8-18 11-45 30-16 12-4 2h-4l-1-2v-6l13-10 15-11 17-12 17-10 19-12 8-5-2-4-8-13-1-3-6 2-14 10-16 11-18 13-16 11-2 2h-6l-1-1v-8l7-7 16-10 25-17 12-9-1-1h-21l-6-1-2 4-4 3-9 1-21-1-9 8-10 3h-6l-3-3 1-9 3-3 24-1 1-5 3-2 6-1h28l7-2h23l7 2-7-17v-2h-41l-10-1-4-4v-6l1-1 47-1-6-17v-2l-83 1-19-1-2-2 1-7 2-2 7-1h90l-3-17-1-2h-92l-6-2-1-7 2-2 4-1h92l-1-7v-13l-46 1h-22l-3-3v-6l4-4h60l7 1v-16l3-26 5-24 12-36 12-25 15-24 10-13 9-10 7-8 15-16 17-14 17-12 23-13 19-8 25-8 19-5 27-4 11-1h14v-35l3-6 8-8z" fill="#262563"/>
<path transform="translate(498,221)" d="m0 0h14l-1 79v20l1 1v6h-2v35l-1 5h-2l-2-9-2-32-4 1h-33l-9-1-5 39-3 29-2 58v33l-8 4-7 1h-54l2 44 2 18v9l6-1h8l1 1-1 7-6 4-11 4-13 4-27 11-8 4-4 4-9 3-16 8-4 1 1 7 6 10 4 6 6-2 14-8 2-4-3-8-1-6 6-1 5 12v2l31-14 12-5 19-5 3 1 2 5-1 4-19 8-16 5-17 7-17 9-12 6-3 2 1 4 8 10 1 4 13-5 3-1v-6l7-1 4 1 16-8 19-8 15-5 8-2 1 5-3 3 2 2h-3v2l-15 7-8 2-16 7-13 7 14 15 4 1 27-12 18-6 23-5 3-2 6 1 3 3-1 4-7 3-13 4-33 11-18 8-1 2 4 2 9 6 28 14 18 6 19 4h5l-10-7-15-8-14-10-7-7 4-4 6 1 13 11 15 10 18 11 3 3 4 1-7-8-6-9-5-10-5-15v-2l4 2v2h2l11 18 11 13 9 7 3 2v-34l1-6 6 1 1 4 1 38 10-4 3 3 23-2 11-4 3-3 12-5 5-3h3v4l-4 2h-3v3l16-4 24-11 20-11 14-10 13-10 15-14 7-7 9-11 6-7 10-14 12-21 9-21 6-15-9-2v-2l10-2 5-22 4-25 1-12-13 12-4 5-8 7-11 11-11 9-6 9-3 3-7 3-5 3-10 8-18 13-10 7-15 10-11 7-6 3-5 3-21 11-29 13-17 7-10 2 5-8 5-5h2l1-4 8-3 12-5 26-12 13-7 19-10 14-10 14-9 10-8h2l2-4 9-6 6-5 9-6 12-12 6-4 7-6 24-24 2-4 8-6 5-5v-19l-1-7-37 37-1 2-5 3-5 5-8 6-15 15-14 10-17 13-10 8-18 12-4 3-2 3h-3l-32 16-12 4 3-9 2-5 19-9 13-8 2-3 4-1 16-9 15-11 16-12 17-14h2l2-5 7-4 7-6h2v-2l-12-1-2-5 4-1 17-1 8-5 11-11 8-7 15-16 6-7-1-11-2-10v-6l-4 3h-2l-2 4-14 15-19 19v2l-9 6-15 15-11 9-1 2h-2v2l-2 2-4 2-14 12-9 7-15 12-13 9-24 14-9 4h-2v-12l13-7 10-6 11-7 12-7 15-12 6-5 1-2h-3l2-4 12-5 16-13 13-12 8-7 3-3h2l2-4 4-6-1-3 3-5 2 1v5l5-4 5-6 13-13 9-11 1-4-5-12-3-9-2-2-16 17-11 11-7 8-8 7-11 10-9 7-7 7-3 1 2-10 4-10 5-3 10-9 15-14-2-5-6-13-8-19-2-16h2l6 9 9 20 7 19 11-12 11-11 3-5-13-20-12-16-12-14-10-11-4-18 8 6 15 15 9 11 10 12 12 18 5 9 4-2 11-12 8-9 9-11 15-16 9-11 11-12 7-7 9-11 13-15 6-8 3-6 3-2h5l2 2v5l-13 16-9 10-7 8-11 12-12 14-13 16-9 10-9 11-12 13-9 10-4 5 1 8 9 17 15-16 8-8 7-8 12-14 9-10 7-8 11-12 10-13 6-8 6-6h6l2 2v6l-11 11-8 10-13 14-7 8-9 10-9 11-13 14-7 8-9 10-7 8-2 5 7 22 16-16 7-8 14-15 8-9 12-12 8-10 12-12 6-7 6 1 1 7-7 8-19 19-7 8-10 10-7 8-12 14-10 10-7 8-9 10-1 4 2 14v7l8-7 15-15 7-8 21-21 7-8 8-8 7-8 5-4h5l2 2-1 7-11 11-8 7-12 13-18 18-7 8-12 13-13 13-3 4-2 28-3 24-5 23-9 26-12 24-18 27-4 5 1 4 28 28 8 7 10 10 7 4 7 1 9-4 22-24 7-8 6-7 6-4 3 1-10 12-7 8-13 13-7 8-6 8-1 3 1 1 23 2v1l-26 1v4l7 9 14 15 10 9 12 11 6 7 7 6 7 8 9 9 1 3-4-2-13-12-9-9-8-7-16-16-8-7-21-21-6 1-6 5-7 8-6 6-2-1 7-9 7-10v-10l-6-9-9-10-28-28-7-8-4-1-9 11-17 17-8 7-17 13-18 11-23 12-19 8-18 5-33 7-20 2h-13l-30-3-22-4-22-6-15-6-16-8-17-9-10-8h-6l-13 8-4 1-2 12-6 8-7 4-7-1-5-3-5 1-16 13-9 8-7 8-13 12-3-1 1-6 6-8 9-11 13-12 14-11 3-3 4-10 5-5 5-2h14l8-6 5-2v-3l-3-1-8-13-4-2-20 10-13 8-24 15-14 10-18 14-13 10-7 8-5 5-8 3-5 6h-6l-1-6 2-2 8-1 18-22 10-9 11-8 20-15 19-12 20-13 6-4-2-5-5-11v-3l-16 8-18 11-45 30-16 12-4 2h-4l-1-2v-6l13-10 15-11 17-12 17-10 19-12 8-5-2-4-8-13-1-3-6 2-14 10-16 11-18 13-16 11-2 2h-6l-1-1v-8l7-7 16-10 25-17 12-9-1-1h-21l-6-1-2 4-4 3-9 1-21-1-9 8-10 3h-6l-3-3 1-9 3-3 24-1 1-5 3-2 6-1h28l7-2h23l7 2-7-17v-2h-41l-10-1-4-4v-6l1-1 47-1-6-17v-2l-83 1-19-1-2-2 1-7 2-2 7-1h90l-3-17-1-2h-92l-6-2-1-7 2-2 4-1h92l-1-7v-13l-46 1h-22l-3-3v-6l4-4h60l7 1v-16l3-26 5-24 12-36 12-25 15-24 10-13 9-10 7-8 15-16 17-14 17-12 23-13 19-8 25-8 19-5 27-4z" fill="#FCFDFD"/>
<path transform="translate(529,186)" d="m0 0h8l12 5 26 13 18 10 15 10 11 9 11 11 10 13 10 19 6 21 1 6v27l-4 13-3 5h-2l-7-34-6-15-9-14-11-14-12-11-14-9-16-7-10-3-7-1v41l5 2 19 12 15 10 11 9 10 9 9 9 7 10 8 16 4 13 3 18v13l-2 14-4 13-8 16-12 12-4 3-2-1 6-13 4-16 1-7v-21l-3-15-6-16-8-13-9-10-1-3-4-2-9-7-17-8-12-4v227l-2 16-4 14-6 12-8 10-9 9-10 7-10 5-11 4-12 2h-17l-16-4-15-8-9-8-8-11-7-15-2-10v-19l4-17 6-12 8-10 8-8 20-12 14-4h22l13 4 11 6 9 6 1-3v-101l1-216z" fill="#FDFDFD"/>
<path transform="translate(836,231)" d="m0 0h5l2 2v5l-13 16-9 10-7 8-11 12-12 14-13 16-9 10-9 11-12 13-9 10-4 5 1 8 9 17 15-16 8-8 7-8 12-14 9-10 7-8 11-12 10-13 6-8 6-6h6l2 2v6l-11 11-8 10-13 14-7 8-9 10-9 11-13 14-7 8-9 10-7 8-2 5 7 22 16-16 7-8 14-15 8-9 12-12 8-10 12-12 6-7 6 1 1 7-7 8-19 19-7 8-10 10-7 8-12 14-10 10-7 8-9 10-1 4 2 14v7l8-7 15-15 7-8 21-21 7-8 8-8 7-8 5-4h5l2 2-1 7-11 11-8 7-12 13-18 18-7 8-12 13-13 13-3 4-2 28-3 24-5 23-9 26-12 24-18 27-4 5 1 4 28 28 8 7 10 10 7 4 7 1 9-4 22-24 7-8 6-7 6-4 3 1-10 12-7 8-13 13-7 8-6 8-1 3 1 1 23 2v1l-26 1v4l7 9 14 15 10 9 12 11 6 7 7 6 7 8 9 9 1 3-4-2-13-12-9-9-8-7-16-16-8-7-21-21-6 1-6 5-7 8-6 6-2-1 7-9 7-10v-10l-6-9-9-10-28-28-7-8-4-1-9 11-17 17-8 7-17 13-18 11-23 12-19 8-18 5-33 7-20 2h-13l-30-3-22-4-22-6-15-6-16-8-17-9-10-8h-6l-13 8-4 1-2 12-6 8-7 4-7-1-5-3-5 1-16 13-9 8-7 8-13 12-3-1 1-6 6-8 9-11 13-12 14-11 3-3 4-10 5-5 5-2h14l8-6 5-2v-3l-3-1-8-13-4-2-20 10-13 8-24 15-14 10-18 14-13 10-7 8-5 5-8 3-5 6h-6l-1-6 2-2 8-1 18-22 10-9 11-8 20-15 19-12 20-13 6-4-2-5-5-11v-3l-16 8-18 11-45 30-16 12-4 2h-4l-1-2v-6l13-10 15-11 17-12 17-10 19-12 14-8 3-1 3-3 16-9 2-4-3-8-1-6 6-1 5 12v2l31-14 12-5 19-5 3 1 2 5-1 4-19 8-16 5-17 7-17 9-12 6-3 2 1 4 8 10 1 4 13-5 3-1v-6l7-1 4 1 16-8 19-8 15-5 8-2 1 5-3 3 2 2h-3v2l-15 7-8 2-16 7-13 7 14 15 4 1 27-12 18-6 23-5 3-2 6 1 3 3-1 4-7 3-13 4-33 11-18 8-1 2 4 2 9 6 28 14 18 6 19 4h5l-10-7-15-8-14-10-7-7 4-4 6 1 13 11 15 10 18 11 3 3 4 1-7-8-6-9-5-10-5-15v-2l4 2v2h2l11 18 11 13 9 7 3 2v-34l1-6 6 1 1 4 1 38 10-4 3 3 23-2 11-4 3-3 12-5 5-3h3v4l-4 2h-3v3l16-4 24-11 20-11 14-10 13-10 15-14 7-7 9-11 6-7 10-14 12-21 9-21 6-15-9-2v-2l10-2 5-22 4-25 1-12-13 12-4 5-8 7-11 11-11 9-6 9-3 3-7 3-5 3-10 8-18 13-10 7-15 10-11 7-6 3-5 3-21 11-29 13-17 7-10 2 5-8 5-5h2l1-4 8-3 12-5 26-12 13-7 19-10 14-10 14-9 10-8h2l2-4 9-6 6-5 9-6 12-12 6-4 7-6 24-24 2-4 8-6 5-5v-19l-1-7-37 37-1 2-5 3-5 5-8 6-15 15-14 10-17 13-10 8-18 12-4 3-2 3h-3l-32 16-12 4 3-9 2-5 19-9 13-8 2-3 4-1 16-9 15-11 16-12 17-14h2l2-5 7-4 7-6h2v-2l-12-1-2-5 4-1 17-1 8-5 11-11 8-7 15-16 6-7-1-11-2-10v-6l-4 3h-2l-2 4-14 15-19 19v2l-9 6-15 15-11 9-1 2h-2v2l-2 2-4 2-14 12-9 7-15 12-13 9-24 14-9 4h-2v-12l13-7 10-6 11-7 12-7 15-12 6-5 1-2h-3l2-4 12-5 16-13 13-12 8-7 3-3h2l2-4 4-6-1-3 3-5 2 1v5l5-4 5-6 13-13 9-11 1-4-5-12-3-9-2-2-16 17-11 11-7 8-8 7-11 10-9 7-7 7-3 1 2-10 4-10 5-3 10-9 15-14-2-5-6-13-8-19-2-16h2l6 9 9 20 7 19 11-12 11-11 3-5-13-20-12-16-12-14-10-11-4-18 8 6 15 15 9 11 10 12 12 18 5 9 4-2 11-12 8-9 9-11 15-16 9-11 11-12 7-7 9-11 13-15 6-8 3-6z" fill="#FDFDFD"/>
<path transform="translate(746,492)" d="m0 0 1 4-3 24-6 29-2 4-10 1v2l9 2-3 10-9 21-8 16-12 19-9 11-9 10-7 8-11 11-11 9-16 12-15 9-21 11-16 7-12 3-3-1 1-3 7-2v-4l-6 3-15 7-5 3-8 3-23 2-1-3-5 1-4 2h-3l-1-4-1-34-2-3-4-2-1 40-4-2-11-9-11-14-8-13v-2h-2l-4-4 7 19 8 15 4 4v2l4 2v2l-5-1-10-7-18-11-14-11-8-6-6 1v3l7 7 17 11 15 8 6 4-1 2-10-1-16-4-21-7-31-17-5-4 1-3 23-10 36-12 10-3 2-1v-5l-8-1-3 2-23 5-18 6-27 12-5-2-9-9-5-7 22-11 10-4 9-2 10-5h2v-4l3-1v-6l-8 2-25 9-21 10-4 2-5-1-5 1-1 5-12 6h-4l-7-11-4-4 1-4 12-7 16-8 18-8 11-4 13-4 14-6h3l1 4 12 14 10 9 22 11 5 2h33l11-3 17-6 19-12 1 3-2 2-5 4-2 5h3l17-6 19-9 24-11 15-8 4-3 10-5 14-10 14-9 28-21 5-4 5-2 5-1 2-5 4-6 10-9 8-7 25-25z" fill="#0DA6DF"/>
<path transform="translate(746,492)" d="m0 0 1 4-3 24-6 29-2 4-10 1v2l9 2-3 10-9 21-8 16-12 19-6 7h-2l-7-8-14-14 1-7 2-7-2-4h-2v-2h-3l-3 9-3 1-8-7-4-4 1 6 7 3 3 6-2 5-13 25-9 14-11 14-11 12-11 11-12 9-15 10-10 6-21 10-9 1 4-3 10-7 13-12 1-2h2l2-4 11-16 8-15 9-24 2-9h-9l-2 9-6 16-8 16h-5l-6-4-4-3-7-3-7-4v-22l8-5 35-16 17-9 4-3 10-5 14-10 14-9 28-21 5-4 5-2 5-1 2-5 4-6 10-9 8-7 25-25z" fill="#242562"/>
<path transform="translate(484,240)" d="m0 0 2 1-8 7-6 10-9 16-8 24-5 21-3 3h-17l-2 6-1 4-8 1-3 1v7l2 3v3l4 2 6 2 4-1 1-10 8-1 3-3h2v8l-5 42-2 35-2 59-1 1-36 1h-23l1-30 3-33 4-27 4-17 8-29 6-18 3-4 1-5 12-23 12-17 9-10 9-9 17-12 12-6z" fill="#7260BB"/>
<path transform="translate(463,240)" d="m0 0 3 1-13 7h-2v2l-11 9-14 14-11 15-10 18-11 24-10 30-7 30-5 34-3 57-7 1-49-1 1-19 3-24 6-29 9-31 13-30 13-23 9-12 2-3h2l2-5 8-9 8-7 13-11 10-8 20-13 18-10 7-5z" fill="#584DA5"/>
<path transform="translate(400,595)" d="m0 0 3 1 2 5-1 4-19 8-16 5-17 7-17 9-12 6-3 2 1 4 8 10 1 4 13-5 3-1v-6l7-1 4 1 16-8 19-8 15-5 8-2 1 5-3 3 2 2h-3v2l-15 7-8 2-16 7-13 7 14 15 4 1 27-12 18-6 23-5 3-2 6 1 3 3-1 4-7 3-13 4-33 11-18 8-1 2 4 2 9 6 28 14 18 6 19 4h5l-10-7-15-8-14-10-7-7 4-4 6 1 13 11 15 10 18 11 3 3 4 1-7-8-6-9-5-10-5-15v-2l4 2v2h2l11 18 11 13 9 7 3 2v-34l1-6 6 1 1 4 1 37h-2v-9l-4 1-1 7-3 1-5-3-5-5-6-3v2h-2l4 4v2l4 2v2h-30l-6-3-6-1-1-1-7-1-6-3-11-3-9-3-1 2h-3l1-4-5-4-5-2-4 1-6 2-7-4-6-3-5-4h-6l-13 8-4 1-2 12-6 8-7 4-7-1-5-3-5 1-16 13-9 8-7 8-13 12-3-1 1-6 6-8 9-11 13-12 14-11 3-3 4-10 5-5 5-2h14l8-6 5-2v-3l-3-1-8-13-4-2-20 10-13 8-24 15-14 10-18 14-13 10-7 8-5 5-8 3-5 6h-6l-1-6 2-2 8-1 18-22 10-9 11-8 20-15 19-12 20-13 6-4-2-5-5-11v-3l-16 8-18 11-45 30-16 12-4 2h-4l-1-2v-6l13-10 15-11 17-12 17-10 19-12 14-8 3-1 3-3 16-9 2-4-3-8-1-6 6-1 5 12v2l31-14 12-5z" fill="#FCFDFD"/>
<path transform="translate(457,326)" d="m0 0h46l1 2 2 30 1 9h2l1-40h2v154l-5-2-3-2h-39l-9 3-7 4h-2l-1-2v-30l2-58 3-29 5-37z" fill="#8E43A8"/>
<path transform="translate(436,244)" d="m0 0 3 1-16 9-14 9-17 13-13 12-6 5-9 11-10 13-5 7-5 9-9 16-12 30-8 27-5 23-4 31-2 21h-42l2-26 6-32 11-33 9-20 9-15 10-16 11-14 7-9h2l2-4 14-15 12-10 11-9 13-9 16-10 21-9z" fill="#584EA6"/>
<path transform="translate(413,545)" d="m0 0 3 1 1 2 7 1 10 6 12 8 10 7 8 4 12 4 6 1h18l11-4 11-7 9-6 10-4h6l5 8 2 6-5 14-7 11-9 10-10 9-12 7-14 5-12 2h-17l-16-4-15-8-9-8-8-11-7-15-2-10v-19z" fill="#DEEDF4"/>
<path transform="translate(754,502)" d="m0 0 1 2h2l-2 22-5 25-10 30-12 24-18 27-4 5 1 4 28 28 8 7 10 10 7 4 7 1 9-4 22-24 7-8 6-7 6-4 3 1-10 12-7 8-13 13-7 8-6 8-1 3 1 1 23 2v1l-26 1v4l7 9 14 15 10 9 12 11 6 7 7 6 7 8 9 9 1 3-4-2-13-12-9-9-8-7-16-16-8-7-21-21-6 1-6 5-7 8-6 6-2-1 7-9 7-10v-10l-6-9-9-10-28-28-7-8-4-1-9 11-17 17-8 7-17 13-18 11-23 12-19 8-18 5-33 7-20 2h-13l-30-3-22-4-22-6-15-6-16-8-17-9-1-2 6 2 4 2 5-2 4-1 8 4 3 3-2 4h3l1-3 9 3 11 3 6 3 7 1 5 2 6 2 7 1h18l7 1-4-4v-2l-4-2v-2h2v-2l4 1 7 5 2 3 5 1 2-7 4-1v9h5l7-3 3 3 23-2 11-4 3-3 12-5 5-3h3v4l-4 2h-3v3l16-4 24-11 20-11 14-10 13-10 15-14 7-7 9-11 6-7 10-14 12-21 9-21 6-15-9-2v-2l10-2 5-22 2-10 3-8 2-1 2-4 4-2z" fill="#FDFDFD"/>
<path transform="translate(651,587)" d="m0 0 5 3 6 7 4 1 4-9h3v2h2l3 4-3 14 20 20v2l2 1-12 13-7 8-11 11-11 9-16 12-15 9-21 11-16 7-12 3-3-1 1-3 7-2v-4l-6 3-15 7-5 3-8 3-23 2-1-3-5 1-4 2-3-1 5-2 2-4 7-11 8-19 3-6 4 1 1 1v7l-3 12-5 9-5 8 13-7 10-8 10-11 12-17 10-22 7-19 2-6h9l-1 9-7 19-8 16-7 12-9 12h-2l-2 4-14 13-10 6 9-2 21-10 11-7 15-10 13-11 14-14 11-14 7-10 9-16 9-17 2-5-3-6-6-2-2-4z" fill="#DDECF3"/>
<path transform="translate(725,371)" d="m0 0 4 5 5 14 2 5-1 4-13 15-8 9-5 4-5 6h-2l-1-5-3 4 1 4-7 9-8 7-12 11-8 7-14 11-12 5-2 3h3l-2 4-12 10-16 11-9 4-1-5v-12l2-4-5 1-15 8-9 4-1-1v-10l9-7 16-9 18-6 4-1v-2l10-7 10-9 8-10 6-12 2-3v6l24-21 10-9 8-7 7-8 14-14 7-8z" fill="#37216C"/>
<path transform="translate(837,384)" d="m0 0h5l2 2-1 7-11 11-8 7-12 13-18 18-7 8-12 13-13 13-3 4-1 17-1 7-2 1-2 2-3 1-2 4h-2l-1 7h-1l1-15 1-11-13 12-4 5-8 7-11 11-11 9-6 9-3 3-7 3-5 3-10 8-18 13-10 7-15 10-11 7-6 3-5 3-21 11-29 13-17 7-10 2 5-8 5-5h2l1-4 8-3 12-5 26-12 13-7 19-10 14-10 14-9 10-8h2l2-4 9-6 6-5 9-6 12-12 6-4 7-6 24-24 2-4 8-6 5-5v-19l-1-9 9-8 2 2 2 14v7l8-7 15-15 7-8 21-21 7-8 8-8 7-8z" fill="#FCFDFD"/>
<path transform="translate(314,489)" d="m0 0h19l36 1 1 2 1 37 2 20 2 11v5l-29 12-18 8-3-9-4-16-5-28-2-20z" fill="#0994D5"/>
<path transform="translate(375,649)" d="m0 0 4 1-19 10 14 15 4 1 27-12 18-6 23-5 3-2 6 1 3 3-1 4-7 3-13 4-33 11-18 8-1 2 4 2 9 6 28 14 18 6 19 4h5l-10-7-15-8-14-10-7-7 4-4 6 1 13 11 15 10 18 11 3 3 4 1-7-8-6-9-5-10-5-15v-2l4 2v2h2l11 18 11 13 9 7 3 2v-34l1-6 6 1 1 4 1 37h-2v-9l-4 1-1 7-3 1-5-3-5-5-6-3v2h-2l4 4v2l4 2v2h-30l-6-3-6-1-1-1-7-1-6-3-11-3-9-3-1 2h-3l1-4-5-4-5-2-4 1-6 2-7-4-6-3-5-4h-6l-13 8-4 1-2 12-6 8-7 4-7-1-5-3-5 1-16 13-9 8-7 8-13 12-3-1 1-6 6-8 9-11 13-12 14-11 3-3 4-10 5-5 5-2h14l8-6 5-2v-3l-3-1-8-13-1-4 4-1v-2l8-4z" fill="#DEEDF4"/>
<path transform="translate(262,489)" d="m0 0h42l1 3 3 38 2 15 5 25 5 15-1 5-16 8-9 6-3-1-13-30-8-24-6-32-2-17z" fill="#0CA7E0"/>
<path transform="translate(572,347)" d="m0 0 5 2 3 1 7 8 6 4 7 8 3 10h2l7 21 1 16-2 10-3 8h-2l-3 9-5 5 1 4-7 15-13 8-8 3v-33l-1-17 1-65z" fill="#F61185"/>
<path transform="translate(371,399)" d="m0 0 2 2 1 8-2 15-3 57-7 1-49-1 1-19 3-24 6-29 2-7 1 2 2-3 7 5 2 2 5 1 7 10 3 5v2h6l5 4v2h2l-2-7-1-7 1-6v-6h2l1-4z" fill="#4151AB"/>
<path transform="translate(448,398)" d="m0 0 1 2h2v-2l11 3 7 3 2 4h-2l2 6 4 5h5l-4 2 4 4 10 8 4 1 7 6 4 1 2 5 3-4 1-30h1v69l-5-2-3-2h-39l-9 3-7 4h-2l-1-2v-30z" fill="#6F5EB9"/>
<path transform="translate(319,385)" d="m0 0 1 3-6 23-4 18-4 31-2 21h-42l2-26 6-32 9-28 6-2 3-7 7 1h8l1 4 5 1 2 2h6v-3l-3-1 2-3h3z" fill="#4252AB"/>
<path transform="translate(746,449)" d="m0 0h1l1 8v19l-9 9-5 2-2 5-25 25-10 8-8 7-7 7-11 7-7 6-6 4-4 4-32-1v-3l12-8 12-10 19-14 12-9 16-16 8-5 4-5h3l2-4z" fill="#2A2665"/>
<path transform="translate(463,240)" d="m0 0 3 1-13 7h-2v2l-11 9-14 14-11 15-10 18-11 24-10 29-4 1h-4l-1 2-3-1-3-3v-3l-7-1-2-1v-2l-4-1-1-2v-10h2v-9l2-5 8-11 2-3h2l2-5 8-9 8-7 13-11 10-8 20-13 18-10 7-5z" fill="#8D43A7"/>
<path transform="translate(204,310)" d="m0 0h15l12 6 7 8 3 9v8l-2 9-6 10-8 6-9 3h-10l-10-5-7-8-4-8-1-4v-16l4-9 7-6z" fill="#12CDF0"/>
<path transform="translate(396,566)" d="m0 0h1l2 15 3 11v3l-16 5-9 3-21 9-15 7h-3l-5-12-1-1h-5l4 13v4l-5 4-15 8-3-1-6-10-5-8 1-5 17-9 7-3 7-2 5-5 27-11 13-5 9-2 12-6z" fill="#0A93D4"/>
<path transform="translate(546,632)" d="m0 0 2 1v22l9 5 7 3 3 3 9 3-2 6-10 14-11 13-9 8-14 8h-2l2-5 5-8 5-11 5-19 1-11-2 2h-6l-5 17-2 2v-2l-4 2-3 3-6-2-1-4-6-1-2-33-2-1 20-7h2v-2z" fill="#1978C4"/>
<path transform="translate(694,558)" d="m0 0h22l18 1-1 6-6 15-8 18-12 20-10 13h-2l-7-8-14-14 1-7 3-1 3-10 6-17 3-8 2-2z" fill="#2C125D"/>
<path transform="translate(502,238)" d="m0 0h1v84l-46-1 3-13 4-13 5-14 9-17 7-10 13-14z" fill="#F91084"/>
<path transform="translate(671,611)" d="m0 0 4 2 2 6v-2l4 2 7 7 4 5 3 3-10 11-7 8-11 11-11 9-16 12-15 9-21 11-16 7-12 3-3-1 15-9 17-12 10-8 13-12 10-11 10-13 9-14 9-16z" fill="#252765"/>
<path transform="translate(457,326)" d="m0 0h46l1 2 2 30 1 9h2l1-40h2v85l-1 30-3 6h-1l-1-11v-53l-1-4-8-1-6-6-11-3-5-4-5-6-8-6-6-5-1-13z" fill="#F71184"/>
<path transform="translate(537,662)" d="m0 0 1 4 7-2 2-1-1 12-6 22-2 2 2-10v-7l-4-1-3 7-8 19-9 13-5 2-1-3-1-34-2-3-4-2-1 40-4-2-11-9-11-14-8-13v-2h-2l-4-4 7 19 8 15 4 4v2l4 2v2l-5-1-10-7-18-11-14-11-1-2 5-1 2 3h15l6 5-5-7v-9l-1-6h-1v-6l3 1 3 3 10 4 21 2 5 2 1-13h3l6-1 1 1v15l3-1 3 2 2 4 7 1 2-4h4l4-15z" fill="#0CA7E0"/>
<path transform="translate(484,240)" d="m0 0 2 1-8 7-6 10-9 16-8 24-5 21-3 3h-17l-2 6-1 4h-8l2-2h4v-2l-21-1 2-3 1-5 12-23 12-17 9-10 9-9 17-12 12-6z" fill="#F91084"/>
<path transform="translate(404,327)" d="m0 0h22l-1 3-6 1-1 3h-2v7l2 3v3l4 2 6 2 4-1 1-10 8-1 3-3h2v8l-5 42-1 13h-2v-2h-6l-6 1-4-1v2l-5-2-2-2v-3h-2l-4-12v-3l-4-2-1-3h-3l-6-9 1-14 7-21z" fill="#8E43A8"/>
<path transform="translate(740,408)" d="m0 0h2l4 21v6l-24 26-15 14-4 4-6 3-17 1-3 1 1 4h7l5 1-1 2-29-1-4-1 4-3 3-1v-2h2l2-4 11-9 15-15 7-5 6-7 22-22 8-10z" fill="#8F42A7"/>
<path transform="translate(432,489)" d="m0 0h6l-2 3v-2l-5 5-14 12-9 13-5 10-3 14-1 6-1 16h-1l-1-5h-14l-2-14-2-36v-21z" fill="#1978C4"/>
<path transform="translate(307,530)" d="m0 0h1l2 15 5 25 5 15-1 5-16 8-9 6-3-1-13-30-8-24-2-13 2 2 2-2 5 1 2 5 10 1 6 2 5-1 3-5 3-3z" fill="#0DC1E8"/>
<path transform="translate(673,300)" d="m0 0 5 4 7 8 9 10 9 12 11 16 7 11-6 8-21 21-6-18-6-13-9-18h-2z" fill="#F71184"/>
<path transform="translate(316,525)" d="m0 0 1 2 6 2 5 4 3 1 8-1 13 1h2l1-5 5-2 2 2v4l-5 1-1-1-2 5 1 5 2 7 5 1v-2h6l3 2v5h2l1-2 1 11-29 12-18 8-3-9-4-16-5-28z" fill="#0DA8E0"/>
<path transform="translate(660,489)" d="m0 0 29 1-4 5-9 6-8 8-11 9-13 10-19 14-17 10-4 2-2-1 2-24 11-7 14-11 12-10 14-11z" fill="#37236D"/>
<path transform="translate(725,371)" d="m0 0 4 5 5 14 2 5-1 4-13 15-8 9-5 4-5 6h-2l-1-5-3 4 1 4-5 5-7 6-3 2-4-1-3-7 1-9 4-8 2-7 4-1h1v-8l7-6 7-8 14-14 7-8z" fill="#F81084"/>
<path transform="translate(388,440)" d="m0 0 7 1 4 6 1 3 8 6 7 1h8l10-1 2-5 3-3-1 32-1 1-36 1h-23l1-30 1-9h3z" fill="#5266B5"/>
<path transform="translate(571,364)" d="m0 0h1l1 28 1 13 2 1h8l4-3-1-9 1 2h2l4 16 2 13 3 16 3 1 2-4 1 2-4 6-3 3 1 4-7 15-13 8-8 3v-33l-1-17z" fill="#8E43A8"/>
<path transform="translate(436,244)" d="m0 0 3 1-16 9-14 9-17 13-13 12-6 5-9 11-10 13-5 7-5 9-6 5-4 1-1-7h-1v-10l1-5-2-1 1-5 12-13 13-11 11-9 13-9 16-10 21-9z" fill="#9042A7"/>
<path transform="translate(388,611)" d="m0 0h2l4 10 5 10-17 6-21 10-4 2-5-1-5 1-1 5-12 6h-4l-7-11-4-4 1-4 12-7 16-8 18-8 11-4z" fill="#0CA7DF"/>
<path transform="translate(707,709)" d="m0 0 11 1 6 4 6 8 2 7v10l-5 8-8 6-9 2-7-1-8-4-6-7-2-5v-12l4-8 7-6z" fill="#FEFEFE"/>
<path transform="translate(746,492)" d="m0 0 1 4-3 24-6 29-1 3h-37l-6-1 1-10 5-6 11-9 30-30z" fill="#2E145F"/>
<path transform="translate(396,351)" d="m0 0 1 4-1 8 5 7v2h3l5 5 4 13v2h2l3 5 4 2v-2h8l4-1 4 1 2 6-1 12h-2v9l-4 1-4-3v-2h-9l-5-7-6-1-1 2h-3l-5-6-8-4-2-4 1-6-2-8 1-5v-9l5-20z" fill="#7F56B4"/>
<path transform="translate(347,450)" d="m0 0 6 2 4-1 2 4 5-1 2 5 1 2v20l-5 1-49-1 1-19 1-10h4v2l10 3 9-3 9-2z" fill="#5265B4"/>
<path transform="translate(417,673)" d="m0 0h6l9 10-2 1-6 1v3l7 7 17 11 15 8 6 4-1 2-10-1-16-4-21-7-31-17-5-4 1-3 23-10h7z" fill="#09B8E5"/>
<path transform="translate(798,570)" d="m0 0h8l8 4 6 7 2 4v13l-3 6-5 4-8 3h-9l-8-4-6-7-1-4v-10l3-8 7-6z" fill="#FA1084"/>
<path transform="translate(331,694)" d="m0 0h12l5 4 3 5-2 10-6 8-7 4-7-1-5-3-5 1-16 13-9 8-7 8-13 12-3-1 1-6 6-8 9-11 13-12 14-11 3-3 4-10 5-5z" fill="#F81084"/>
<path transform="translate(330,595)" d="m0 0h2v3l4-3 21 7 12 3-4 3-24 11h-3l-5-12-1-1h-5l4 13v4l-5 4-15 8-3-1-6-10-5-8 1-5 17-9 7-3 7-2z" fill="#0DC1E8"/>
<path transform="translate(448,398)" d="m0 0 1 2h2v-2l11 3 7 3 2 4h-2l2 6 4 5h5l-4 2 4 4 10 8 4 1 7 6 3 1v14l-2 1-14-4-5-5-6-5-4-6-11-3-3-5-6-1-4 1-1-1z" fill="#7F57B4"/>
<path transform="translate(724,583)" d="m0 0 1 2-8 16-8 14-8 11-4 5h-2l-7-8-14-14 1-7 3-1 3-10 6-5h8l1 1h13l3 5 7 1 1-4z" fill="#242562"/>
<path transform="translate(277,448)" d="m0 0 8 1 1 5 14-2 5-2 1 10-2 21h-42l2-26 2 1 2-3 7-1v-3z" fill="#1979C5"/>
<path transform="translate(511,412)" d="m0 0h1v69l-5-2-3-2h-39l-9 3-7 4h-2l-1-2v-30l1-13h1l1 5 6 1 10 4 5 8 6 3 5 5 10 3 6 2v2l4-1v3h3l1-8h1l1 9 3-3z" fill="#6664B8"/>
<path transform="translate(670,344)" d="m0 0h2l2 13 8 19 8 16-2 4-8 8-8 7-10 9h-3l-1 2 2-14h2v-17l-2-16-2-5 1-5 10-11z" fill="#F51285"/>
<path transform="translate(536,636)" d="m0 0h3v8l-1 3-1 21-4 15-2 2v-2l-4 2-3 3-6-2-1-4-6-1-2-33-2-1 20-7h2v-2z" fill="#1877C4"/>
<path transform="translate(381,419)" d="m0 0 4 1v2l3 1v3l6-2 2-2 8 4 2 3 6 3 7 4 5 5 2 4v3l2-1 1-5 6-1v-2h2l1-4v12l-5 9-10 2h-8l-7-1-9-7-4-8-7-1-7 3-2-1z" fill="#6864B8"/>
<path transform="translate(676,516)" d="m0 0h2l1 8v17l-9 6-6 5-6 4-4 4-32-1v-3l12-8 12-10 19-14z" fill="#36216C"/>
<path transform="translate(400,642)" d="m0 0 5 5 8 10 7 2-4 2-13 5-20 9-7 2-8-7-9-10 4-3 23-11 5-2z" fill="#09BAE6"/>
<path transform="translate(168,546)" d="m0 0h81v1h-5v10h8v1l-73 1-19-1-2-2 1-7 2-2z" fill="#FEFEFE"/>
<path transform="translate(161,515)" d="m0 0h91v1h-9l1 9h10v1l-72 1h-20l-6-2-1-7 2-2z" fill="#FEFEFE"/>
<path transform="translate(375,649)" d="m0 0 4 1-19 10 14 15 4 1 27-12 18-6 23-5 3-2 6 1 3 3-1 4-7 3-13 4-33 11-16 7-2-1 20-10 7-2h4l-2-4-9-1-5 3h-3v2l-10 3-7 4-11 2-8 4-6-1-9-14-1-4 4-1v-2l8-4z" fill="#DEEDF4"/>
<path transform="translate(688,409)" d="m0 0 2 1v10l-2-4-4 2-2 8-3 6-1 10 3 6 5-1 7-7v3l-12 12-16 14-4 1-4 2-5-9v-10l2-7 9-11 7-8 9-10 8-7z" fill="#8E42A7"/>
<path transform="translate(262,489)" d="m0 0h42l1 3v26l-3-2v-5l1-5-2 1-2 5-2 1h-8l-4-3h-10l-1 3-5 3-2 1-1 3-2-3-2-17z" fill="#0992D4"/>
<path transform="translate(547,636)" d="m0 0h33l6 2 2 5-9 21-3 5h-5l-6-4-4-3-7-3-7-4z" fill="#4051AA"/>
<path transform="translate(405,603)" d="m0 0 2 1 1 4 12 14 10 9 22 11 5 2 31 1v1l-27 1-11 1-4-4h-6l1 9-2-1-2-5-1-3-11-2-13-5v-4l3-1v-6l-8 2-5 2-5-1-7-14v-5l14-6z" fill="#1879C5"/>
<path transform="translate(499,649)" d="m0 0h2v31l-6-2-22-2-12-6-5-10 22-6 18-4z" fill="#1976C3"/>
<path transform="translate(228,334)" d="m0 0h7l4 1v15l-6 10-8 6-9 3h-10l-10-5-3-3v-4l7-4 7-2 10-4 5-5 4-5z" fill="#0DA8E0"/>
<path transform="translate(261,489)" d="m0 0h1l4 34 5 26 10 29 11 25 4-2 20-11 3-1-1-7-5-16-5-26-3-32-1-19 2 2 2 27 1 2 1 17 1 1 1 8 5 1-2-10-1-13-1-8-1-25 2-2 1 23 3 26 5 28 5 18 18-8 27-11 2 1-10 5-10 4-14 6h-3v2l-15 6h-2v2l-16 8-10 6-5-1-6-12-3-7-6-16-4-10-2-6-3-16-1-4-2-11-1-13-1-4v-7h-2v-6z" fill="#DEEDF4"/>
<path transform="translate(396,749)" d="m0 0 8 1 6 5 4 11-1 7-7 8-5 2h-8l-7-4-4-5-1-10 5-10 6-4z" fill="#252664"/>
<path transform="translate(694,543)" d="m0 0 1 3-1 5 42 1v1l-10 1v2l9 2-1 2-18-1h-22l-2 6-2 2-5 16-7 18h-1v-6l-2-4h-2v-2h-3l-1 3-1-2 8-24 2-12 5-3 9-3z" fill="#6759B3"/>
<path transform="translate(537,662)" d="m0 0 1 4 7-2 2-1-1 12-6 22-2 2 2-10v-7l-4-1-3 7-8 19-9 13-5 2-1-3-1-34-2-3-4-2v6h-1v-11l8-2v8l4-1 3 2 2 4 7 1 2-4h4l4-15z" fill="#0DAAE1"/>
<path transform="translate(185,483)" d="m0 0h60l6 1-3 1 2 9-5 1-39 1h-22l-3-3v-6z" fill="#FEFEFE"/>
<path transform="translate(699,451)" d="m0 0h2l2 6 1 8v13l-7 4-17 1-3 1 1 4h7l5 1-1 2-29-1-4-1 4-3 3-1v-2h2l2-4 11-9 15-15z" fill="#3E2471"/>
<path transform="translate(307,530)" d="m0 0h1l2 15 4 21v6h-2l-2 8-4 2-2-3v-3l-2-1 3-3 1-2 3-1-9-9-9 1-2-1v-2l-5-2-1-5 3-2v-3l-3 1-3 6-3 4-2 3-3-9-2-2-2-13 2 2 2-2 5 1 2 5 10 1 6 2 5-1 3-5 3-3z" fill="#08B7E5"/>
<path transform="translate(746,449)" d="m0 0h1l1 8v19l-9 9-5 3-11 2-15-1 2-4z" fill="#3D2370"/>
<path transform="translate(537,623)" d="m0 0 1 3-2 2-5 4-2 5-2 1 2 2-16 6-4 2 1 2v15l-4 2h-2l-2 2-1-3v-17l-12 4-21 4-8-8-4-2 5-1 27-1 16-5 14-5z" fill="#0D90D2"/>
<path transform="translate(217,609)" d="m0 0h24l3 6-5 6-8 2-24-1-9 8-10 3h-6l-3-3 1-9 3-3 24-1 1-5 3-2z" fill="#FEFEFE"/>
<path transform="translate(592,611)" d="m0 0h3l-1 10-4 16-2 4-2-1v-2l-6-1h-32l-1-4 8-5 35-16z" fill="#242764"/>
<path transform="translate(598,496)" d="m0 0 4 1-2 4v18l-10 6-13 8-4 1-2-1v-19l3-6 17-8z" fill="#252563"/>
<path transform="translate(718,239)" d="m0 0 8 1 5 5 3 6v9l-4 6-6 3h-10l-6-4-3-8 1-8 7-8z" fill="#282968"/>
<path transform="translate(619,558)" d="m0 0 34 1-1 3-10 7-11 7-19 13h-3v-8l1-4 1-13 5-4z" fill="#252764"/>
<path transform="translate(333,489)" d="m0 0h37l1 2 1 21 2 1-2-7 4-6 1-10h1l2 44 2 18v9l6-1h8l1 1-1 7-6 4-6 1 4-10-7 1-6 1-4-24-1-12-1-39h-36z" fill="#DEEDF4"/>
<path transform="translate(570,429)" d="m0 0h2l1 11v10l7-2 10-3 5-4 1-5h1l2 8v3l-1 4 1 2-7 15-13 8-8 3v-33z" fill="#372570"/>
<path transform="translate(406,665)" d="m0 0 9 1 3 3-1 2-11 3-22 11-6 4-4 2-8 2-11 7-5 2-5-6 1-3 10-7h2v-2l15-6 10-2 5-3 5-2h5v-2z" fill="#FDFDFD"/>
<path transform="translate(463,240)" d="m0 0 3 1-13 7h-2v2l-11 9-14 14-11 15-6 6h-11l-5-3v-2h2l2-4 13-12 5-5 17-11 18-10 7-5z" fill="#F71184"/>
<path transform="translate(380,181)" d="m0 0h8l2 2v10h14l2 2v6l-3 2h-12l-1 9-2 3h-7l-2-3-1-9-13-2-1-1v-5l2-2h13v-11z" fill="#FEFEFE"/>
<path transform="translate(618,475)" d="m0 0 4 4-1 5-11 7-38 19-1-1v-10l9-7 16-9 18-6z" fill="#DEEDF4"/>
<path transform="translate(344,628)" d="m0 0 3 4 8 14-1 3-2-1-5 1-1 5-12 6h-4l-7-11-4-4 1-4 12-7z" fill="#09B8E5"/>
<path transform="translate(614,488)" d="m0 0 4 1 20 1-2 4-15 12-14 9-7 3-1-5v-12l2-6z" fill="#37236D"/>
<path transform="translate(258,577)" d="m0 0h11l5 9-1 4h-39l-10-1-4-4v-6l1-1z" fill="#FEFEFE"/>
<path transform="translate(428,693)" d="m0 0 22 14 13 7 6 4-1 2-10-1-16-4-21-7-17-9 4-2h8l4 1 5-3h3z" fill="#0DC2E9"/>
<path transform="translate(646,389)" d="m0 0h1v13l-2 14-4 13-8 16-12 12-4 3-2-1 6-13 4-16 1-7 1-19h1l1 12 1 2 7-1 3-1 2-4 3-12z" fill="#DDECF3"/>
<path transform="translate(410,637)" d="m0 0 8 1 7 3 11 3 4 6-1 4-11 4-5 1h-9l-8-9-5-6 2-4z" fill="#1978C4"/>
<path transform="translate(316,712)" d="m0 0h3l4 8-7 4-14 12-8 7-7 8-13 12-3-1 1-6 6-8 9-11 13-12 14-11z" fill="#FDFDFD"/>
<path transform="translate(458,667)" d="m0 0 3 1 7 11-2 1-4-4 7 19 8 15 4 4v2l4 2v2l-5-1-10-7-18-11-14-11-1-2 5-1 2 3h15l6 5-5-7v-9l-1-6h-1z" fill="#0DA9E0"/>
<path transform="translate(678,217)" d="m0 0 8 1 4 2 3 5v8l-5 7-5 3h-7l-6-4-3-7 1-8 5-5z" fill="#272766"/>
<path transform="translate(737,413)" d="m0 0h3l3 9 1 6 2 1v6l-8 9-4 2-7 7h-2l-2-4 1-9 1-1v-11l6-8 4-5h2z" fill="#F71184"/>
<path transform="translate(536,636)" d="m0 0h3v8l-1 3-1 11-6 2-13-1-8-1-1-10-2-1 20-7h2v-2z" fill="#4150A9"/>
<path transform="translate(573,262)" d="m0 0h4v2l5 2 9 4v2l5 2 6 4 4 5 2 1 3 5 5 5 3 9-4-2-10-8-6-3-13-9-11-9-3-5z" fill="#F41286"/>
<path transform="translate(314,489)" d="m0 0h19l36 1 1 2v44l-2-4 1-10-5-2v-2h-5l-7-7 8-2 2-7-3-8v-2h-25l-11 1-1 3-6 1v7l-2 1z" fill="#197BC6"/>
<path transform="translate(375,649)" d="m0 0 4 1-19 10 14 15 4 1 10-4-1 3-6 3-11 2-8 4-6-1-9-14-1-4 4-1v-2l8-4z" fill="#DEEDF4"/>
<path transform="translate(571,346)" d="m0 0h1l-1 90 1 10v10h-1l-1-12h-2v-5h-2l1-10 1-3h-2l-2-7v-31l1-7 3-5 2-28z" fill="#2D135E"/>
<path transform="translate(828,503)" d="m0 0h10l7 6v7l-4 6-4 2h-11l-5-4-2-4v-6l4-5z" fill="#FEFEFE"/>
<path transform="translate(438,446)" d="m0 0h1l1 8 5 2 1 2 1 27-8 4-7 1h-54v-1l48-1 13-1-2-4h-60v-1l59-2 1-33z" fill="#DEEDF4"/>
<path transform="translate(134,482)" d="m0 0h7l5 3 1 7-3 4-3 1h-21l-6-3-1-7 3-4z" fill="#FEFEFE"/>
<path transform="translate(436,244)" d="m0 0 3 1-16 9-14 9-17 13-3 2-5 1-2-8 6-5 5-5 15-7 24-9z" fill="#F81084"/>
<path transform="translate(400,595)" d="m0 0 3 1 2 5-1 4-19 8-3-1 4-1 1-3h3v-7l-8 2-19 7-12 6-11 5-8 3-6 5-9 5-1 1h-5l4-3 14-8 2-4-3-8-1-6 6-1 5 12v2l31-14 12-5z" fill="#DEEDF4"/>
<path transform="translate(335,595)" d="m0 0 22 7 12 3-4 3-22 10h-4l-6-17 1-4z" fill="#0DA8E0"/>
<path transform="translate(327,401)" d="m0 0 8 5 2 2 5 1 7 10 3 5v3h-9l-6-3-4-7-1-2-4 1-2 2-2 6h-2l-1 3h-1l1-9 4-16 1 2z" fill="#5364B4"/>
<path transform="translate(576,685)" d="m0 0 2 3 1 4h2l2 6-1 3-13 8-21 10-9 1 4-3 10-7 13-12 1-2h2l2-4z" fill="#3D58AE"/>
<path transform="translate(364,733)" d="m0 0h6l1 1v7l-3 3-6 1-5 9-7 5-6-1-3-5 2-5 5-4 8-7z" fill="#F91084"/>
<path transform="translate(688,559)" d="m0 0 4 2-1 5-3 8-7 20-3 7h-1v-6l-2-4h-2v-2h-3l-1 3-1-2 4-11h2l2-6 3-5 5-3h2v-3h2z" fill="#128DD0"/>
<path transform="translate(691,501)" d="m0 0h1v15l-2 15-8 8-3 1-2-25z" fill="#2D145F"/>
<path transform="translate(379,649)" d="m0 0h5l-1 4 1 7v9l-9 3h-3l-6-6v-2l-4-1-3-4z" fill="#0DA8E0"/>
<path transform="translate(184,577)" d="m0 0h14l5 3 1 1v5l-6 5h-17l-6-5v-5l4-3z" fill="#FEFEFE"/>
<path transform="translate(121,576)" d="m0 0h20l5 2 1 6-4 5-4 1h-12l-6-3-3-4 1-6z" fill="#FEFEFE"/>
<path transform="translate(447,663)" d="m0 0h3l3 10 5 9-1 3v-2l-4-1-1-1-11-2-11-5v-2h-5l-1 1-7 1-4 1v-2l27-9z" fill="#0B94D4"/>
<path transform="translate(428,630)" d="m0 0 24 12 5 2 31 1v1l-27 1-11 1-4-4h-6l1 9-2-1-2-5-1-3-11-2-11-4 3-3 11-3z" fill="#4250AA"/>
<path transform="translate(396,566)" d="m0 0h1l2 15 3 11v3l-6 2h-7l-2-6-3-15v-3l10-4z" fill="#187BC6"/>
<path transform="translate(561,613)" d="m0 0h2v2l-4 2v7l3 2-18 8-15 5-3-1 5-7 5-5h2l1-4 8-3 12-5z" fill="#DEEDF4"/>
<path transform="translate(303,608)" d="m0 0 2 1 3 1v5l3 2 5 1v-2l3 1-1 4 3 5 3 2-13 7-3-1-6-10-5-8 1-5z" fill="#12CDF0"/>
<path transform="translate(509,373)" d="m0 0 2 4 1 35-1 30-3 6h-1l-1-11v-40l2-23z" fill="#FA1084"/>
<path transform="translate(253,270)" d="m0 0h8l6 7v6l-5 6-6 2-7-4-1-2v-9l3-5z" fill="#FA1084"/>
<path transform="translate(468,680)" d="m0 0h2l7 12v2l5 1 2 6 10-3 3-4h4l1 26-4-2-11-9-11-14-8-13z" fill="#0ABAE6"/>
<path transform="translate(701,494)" d="m0 0 2 1v13l-1 13-5 4-7 5 1-14 1-16z" fill="#5D68BA"/>
<path transform="translate(228,334)" d="m0 0h7l4 1v10h-4l-3-4h-5l-2 4-8 6-5 2-5 6-3 3-7-1 7 5 12 2v1h-10l-10-5-3-3v-4l7-4 7-2 10-4 5-5 4-5z" fill="#08B8E5"/>
<path transform="translate(202,617)" d="m0 0h5l-3 2h-2l1 4 2 1-7 6-10 3h-6l-3-3 1-9 3-3z" fill="#FEFEFE"/>
<path transform="translate(283,605)" d="m0 0h1v5l-3 3h-8v2l-3 1h-21l-6-2-2-4 11-3h23l7 1z" fill="#DFEDF4"/>
<path transform="translate(546,632)" d="m0 0 2 1v21l-1 9-3 3h-6l-1-4v-15l1-3v-9z" fill="#0A8FD2"/>
<path transform="translate(670,520)" d="m0 0h2l-1 18-3 3h-9l-8 2h-6l1-5 19-14z" fill="#2D1661"/>
<path transform="translate(258,577)" d="m0 0h11l5 9-1 4-25-1-3-8-3-2z" fill="#DFEDF4"/>
<path transform="translate(212,451)" d="m0 0 22 1 1 1-1 7-2 3-3 1h-15l-4-2-2-4 1-5z" fill="#FEFEFE"/>
<path transform="translate(462,671)" d="m0 0 9 3 4 1 20 2 5 2 1 1v7l-3-1-9 1-5-3h-7l-7-2v-2l-3-1z" fill="#0992D4"/>
<path transform="translate(371,399)" d="m0 0 2 2 1 8-2 15h-2l-1 16-1-3-3-1-1-3v-7l-2-4 1-16h2l1-4z" fill="#5263B4"/>
<path transform="translate(442,643)" d="m0 0 5 1 3 3 10 1 2 4 5 2 2 2-2 2-10 3-2 9 1 6-3-1-3-7v-5l-7 1 2-2 10-3 2-1v-5l-8-1-3 2-10 2-4-1 9-2-1-9z" fill="#08B4E3"/>
<path transform="translate(427,331)" d="m0 0 4 5 5 4h-3l1 6-2 4-6 2-8-5v-3l-2-1-1-4 1-5 3-2z" fill="#E1EEF5"/>
<path transform="translate(400,642)" d="m0 0 5 5 8 10 7 2-4 2-13 5-4 1 2-3-7-14v-5l-3-1z" fill="#12CCF0"/>
<path transform="translate(511,412)" d="m0 0h1v69l-5-2-3-2h-39l-9 3-7 4h-2l-1-4 1-7 2 1h42l14 1v-9h1l1 9 3-3z" fill="#5955AF"/>
<path transform="translate(385,612)" d="m0 0 3 1-4 3h-2l2 12-9 3-1-1-8-1 1-4-1-1h-9l4-4 16-6z" fill="#0991D3"/>
<path transform="translate(644,551)" d="m0 0h20l-5 4-5 5-32-1v-3l6-4z" fill="#6064B9"/>
<path transform="translate(441,687)" d="m0 0 3 3h15l7 7v8l-1 3-5-2-16-11-7-6z" fill="#09B9E6"/>
<path transform="translate(407,675)" d="m0 0h5l6 9 5 6-7-2-10 2-5-2-1-3-4-1-11 2 3-3z" fill="#0CA6DF"/>
<path transform="translate(757,481)" d="m0 0h1v16l-1 7-2 1-2 2-3 1-2 4h-2l-1 7h-1l1-15 2-13z" fill="#DEEDF4"/>
<path transform="translate(383,574)" d="m0 0 2 2 4 20 5 1v1l-15 3-1-4-2-9v-11l-2-1z" fill="#08B4E3"/>
<path transform="translate(594,456)" d="m0 0h2l-1 6-3 6-13 8-8 3v-9l5-5 17-8z" fill="#DEEDF4"/>
<path transform="translate(609,565)" d="m0 0 2 2v10l-1 4v9l-12 5 3-22 1-3-2-1z" fill="#168ACE"/>
<path transform="translate(588,375)" d="m0 0 4 4 6 21 2 9v8l-2-1-3 1-3-8-5-25z" fill="#FEFEFE"/>
<path transform="translate(157,452)" d="m0 0h8l4 4 1 7-5 4h-10l-4-4-1-5 5-5z" fill="#FEFEFE"/>
<path transform="translate(653,433)" d="m0 0 2 8h-2l-2 5-10 15-6 8-7 9h-2l-2 4-2 1-3-7-1-2 10-7 10-9 8-10 6-12z" fill="#6461B6"/>
<path transform="translate(694,543)" d="m0 0 1 3-2 10-2 4-3-1v3h-2v3l-5 3h-2l-1 4-2 5h-2l-1 2 2-10 3-14 4-4 5-2 5-1z" fill="#6663B7"/>
<path transform="translate(297,611)" d="m0 0 1 2 1 5 6 10 4 6 2 2-9 4-7-10-6-12z" fill="#DEEDF4"/>
<path transform="translate(606,604)" d="m0 0 1 2-2 14-3 9-10-1 1-7 2-10-2-1z" fill="#6263B7"/>
<path transform="translate(509,673)" d="m0 0h1l1 8 1 22 5 1 3 3 1 6-5 7-5 2-1-3-1-34-2-3-4-2v6h-1v-11z" fill="#08B7E5"/>
<path transform="translate(545,693)" d="m0 0 10 3h3l-7 8-10 8-11 6h-2l2-5 2 1 1-3 3-1 3-6 3-9z" fill="#0B94D4"/>
<path transform="translate(699,451)" d="m0 0h2l2 6 1 8v13l-7 4-2-1v-19l-1-6z" fill="#F81084"/>
<path transform="translate(414,625)" d="m0 0 2 1-1 6-2 1 2 2h-3v2l-15 7-8 2-10 3 1-2 10-4 9-2-1-7h-8l2-2 15-5z" fill="#DEEDF4"/>
<path transform="translate(388,611)" d="m0 0h2l4 10 5 10-15 5-2-1 4-1-5-15 1-4 5-2z" fill="#0DC0E8"/>
<path transform="translate(537,662)" d="m0 0 1 4 7-2 2-1-1 12-6 22-2 2 2-10v-7l-4-1-3 7-3 4 1-6 4-13z" fill="#12CCEF"/>
<path transform="translate(746,492)" d="m0 0 1 4-3 24-6 29-1 3h-4l1-9 3-2 2-17-1-3v-8h2l2-5 1-7 1-3-4 2-7 7-2-1 10-10z" fill="#2B2868"/>
<path transform="translate(611,525)" d="m0 0h1l1 24-9 5-2-1 2-24z" fill="#1A89CE"/>
<path transform="translate(320,600)" d="m0 0h4l4 13 1 6-4-3-11-1-3-1-1-6-2-1 3-3z" fill="#08B7E5"/>
<path transform="translate(676,516)" d="m0 0h2l1 8v17l-9 6-2 1 2-10 1-14 2-6z" fill="#7358B4"/>
<path transform="translate(333,200)" d="m0 0 5 1 4 4v7l-4 4-6 1-5-5-1-6 4-5z" fill="#FEFEFE"/>
<path transform="translate(344,628)" d="m0 0 3 4 8 14-1 3-2-1-5 1-1 5-2-4-6-13-1-5z" fill="#12CDF0"/>
<path transform="translate(371,577)" d="m0 0h5l2 20-5-1v-2l-6-2-4-6-2-1v-4z" fill="#187AC5"/>
<path transform="translate(585,489)" d="m0 0 2 4 1 8-3 3-13 6-1-1v-10l9-7z" fill="#DEEDF4"/>
<path transform="translate(605,493)" d="m0 0 3 3 3 17-11 5-1-5v-12l2-6z" fill="#6361B6"/>
<path transform="translate(618,490)" d="m0 0h20l-2 4-15 12-4 1-2-6h2v-3l2-2 1-4z" fill="#272765"/>
<path transform="translate(831,449)" d="m0 0h7l5 4v6l-4 4h-8l-4-3-1-5 3-5z" fill="#FEFEFE"/>
<path transform="translate(365,634)" d="m0 0 10 2h4l3 1-21 10-6 2-5-11h2l1 2 3 1v-2h2l1-3 5-1z" fill="#09B8E5"/>
<path transform="translate(806,475)" d="m0 0h7l4 5v6l-2 3h-9l-4-3-1-4 2-5z" fill="#FA1084"/>
<path transform="translate(400,595)" d="m0 0 3 1 2 5-1 4-19 8-3-1 4-1 1-3h3v-7l-4-1 3-2z" fill="#DBECF3"/>
<path transform="translate(427,285)" d="m0 0v3l-10 17 1 5 2 8v3h5v1h-18l1-5 11-21z" fill="#9241A7"/>
<path transform="translate(350,663)" d="m0 0h3l3 6 10 11v2l-4 2-6-1-9-14-1-4z" fill="#0FBFE8"/>
<path transform="translate(249,546)" d="m0 0h10l2 6 1 6h-10l-8-1-1-8 1-2z" fill="#DEEDF4"/>
<path transform="translate(513,680)" d="m0 0 4 2 2 4 7 1 2-4h3l1 3-4 11-8-1-4-4-5-6v-5z" fill="#0992D4"/>
<path transform="translate(405,639)" d="m0 0 3 1v2l10 9 4 3 1 5h-9l-8-9-5-6 2-4z" fill="#0A96D5"/>
<path transform="translate(405,603)" d="m0 0 2 1 1 4 12 14-2 1-3-1v-2l-5-1-7-4-8-3h-5v-2l14-6z" fill="#3D58AF"/>
<path transform="translate(320,639)" d="m0 0 3 1-3 2 1 4 8 10 1 4 13-5h3l-5 3-6 3-11 3-8-16v-3l-2-1z" fill="#DEEDF4"/>
<path transform="translate(281,450)" d="m0 0h2l1 4 16-2 5-2 1 10-2 3-2-4-4 1-1 1-7-1-7-3h-5l-1-6z" fill="#5165B5"/>
<path transform="translate(389,645)" d="m0 0h5l3 10 5 10-3 2h-3v-2l-4-2-3-5-3-8v-4z" fill="#0DA6DF"/>
<path transform="translate(586,481)" d="m0 0h9l5 1-4 2-19 11-6 4-1-5 4-5 4-1 2-4z" fill="#5550A8"/>
<path transform="translate(693,455)" d="m0 0 2 1 1 8v17h-3l-2-11-8 1v-3l-2-1z" fill="#452273"/>
<path transform="translate(566,701)" d="m0 0 3 4v3l-3 2-18 9-9 1 4-3 10-7 9-8z" fill="#197DC7"/>
<path transform="translate(755,440)" d="m0 0 2 2 1 7v14l-2-2-1-3-2-1-1 4-3 1-1-13-2-1z" fill="#DEEDF4"/>
<path transform="translate(417,673)" d="m0 0h6l9 10-2 1-6 1v3l1 2-4-2-8-9-1-4-3-1h7z" fill="#15CDF0"/>
<path transform="translate(447,663)" d="m0 0h3l3 10 5 9-1 3-7-9-12-4v-2l-3-1 2-4z" fill="#1A78C4"/>
<path transform="translate(445,708)" d="m0 0 11 3 5 2 8 5-1 2-10-1-14-3v-2l-3-1 1-3z" fill="#12CDF0"/>
<path transform="translate(593,464)" d="m0 0 1 4 1 9v2 3h-9l-3 2h-3l2-7v-3l8-6h2z" fill="#3B2571"/>
<path transform="translate(736,291)" d="m0 0h7l3 3-1 5-4 5-5 1-4-4v-6z" fill="#FEFEFE"/>
<path transform="translate(346,745)" d="m0 0h3v3l9 2-1 4-7 5-6-1-3-5 2-5z" fill="#973FA5"/>
<path transform="translate(601,699)" d="m0 0 1 2h2v2l2 1-18 8-12 3-3-1 15-9 4-3 9-1z" fill="#3D5AAE"/>
<path transform="translate(667,482)" d="m0 0h13l-3 2 1 4h7l5 1-1 2-29-1-4-1 4-3 3-1v-2z" fill="#FA1184"/>
<path transform="translate(276,304)" d="m0 0 4 1 3 6v6l-4 4-6-2-1-1v-9l2-4z" fill="#FEFEFE"/>
<path transform="translate(642,480)" d="m0 0 3 2-2 2-5 2-2 3h3l-1 2-20-1-3-3 6-3 16-2z" fill="#5C66BA"/>
<path transform="translate(659,420)" d="m0 0h7l1 6-4 6-7 7-3 1 2-10z" fill="#DEEDF4"/>
<path transform="translate(314,489)" d="m0 0h19l23 1v1l-33 2-1 3-6 1v7l-2 1z" fill="#197DC7"/>
<path transform="translate(438,637)" d="m0 0 7 1 8 5 4 1 31 1v1l-27 1-11 1-4-4-7 1z" fill="#1E73C1"/>
<path transform="translate(371,364)" d="m0 0h5l1 5 3 1 1-2-1 8-1 5-2-2-3 3h-3l-1-6 3-3-3-2zm3 4 1 2z" fill="#6357B0"/>
<path transform="translate(382,628)" d="m0 0h3l1 6-11 4v-2l-9-1v-5l1-1h7l2 1z" fill="#14AEE2"/>
<path transform="translate(656,713)" d="m0 0 5 2 2 2-1 7-3 3-6-1-2-3 1-7z" fill="#292A6B"/>
<path transform="translate(680,512)" d="m0 0 3 1v12l1 7 3 1-5 6-3 1-2-25z" fill="#37236D"/>
<path transform="translate(413,624)" d="m0 0h9l6 5v3l-13 5h-3v-4l3-1v-6h-5z" fill="#0AB1E2"/>
<path transform="translate(330,595)" d="m0 0h2l7 21v2l2 1h-3l-5-12-1-1h-5l3 9-1 4-5-14v-5l-2-1 7-2z" fill="#12CCF0"/>
<path transform="translate(593,486)" d="m0 0h2l3 9 4-1-1 2-12 6-3-1 1-3-1-8 7-3z" fill="#FBFCFD"/>
<path transform="translate(690,679)" d="m0 0 7 1 3 5-4 6-5 1-4-4 1-6z" fill="#2E2D6F"/>
<path transform="translate(458,667)" d="m0 0 3 1 7 11-2 1-4-4 7 19 3 5-1 3-11-15v-9l-1-6h-1z" fill="#12CDF0"/>
<path transform="translate(377,650)" d="m0 0 4 1 1 3v8h-6l-6-3-2-4z" fill="#0992D4"/>
<path transform="translate(587,504)" d="m0 0 4 1v2h2l3 4 2 7 1 2-5 2h-6l1-12-4-4z" fill="#38226D"/>
<path transform="translate(509,373)" d="m0 0 2 4v26l-3 6h-1v-28l1-7z" fill="#FEFEFE"/>
<path transform="translate(510,442)" d="m0 0h1v30l-4 3v-27z" fill="#DEEDF4"/>
<path transform="translate(731,365)" d="m0 0h3l4 11-4 4-3 1-5-8 1-4z" fill="#DEEDF4"/>
<path transform="translate(573,509)" d="m0 0h1l2 14 3 6v3l-6 2-2-1v-19z" fill="#38226E"/>
<path transform="translate(719,248)" d="m0 0 5 2 1 7-4 4-6-2-1-2v-6z" fill="#E2EFF5"/>
<path transform="translate(606,385)" d="m0 0 2 3 4 13 1 16-2 10-3 8-2-2-2-5 1-3 2 1 3-7v-15l-4-15z" fill="#8D44A9"/>
<path transform="translate(407,675)" d="m0 0h5l4 6-1 2-5-3-5 2-9 2-11 2 3-3z" fill="#0D93D4"/>
<path transform="translate(475,375)" d="m0 0h6l1 4-3 5h-13v-3z" fill="#FA1084"/>
<path transform="translate(599,291)" d="m0 0 6 1 11 9 3 2-2-5h2l4 7v3l-9-1-7-9-4-3v-2z" fill="#361966"/>
<path transform="translate(181,423)" d="m0 0h5l2 3v6l-3 4-5-1-2-3 1-7z" fill="#FEFEFE"/>
<path transform="translate(537,662)" d="m0 0 1 4 7-2 2-1-1 12-4 1-7-1z" fill="#09B8E5"/>
<path transform="translate(509,665)" d="m0 0 2 1v15h-1l-1-7-1 1h-6v13h-1v-22h3z" fill="#09B6E4"/>
<path transform="translate(419,332)" d="m0 0h7v2h2l4 6-1 9-2-4-5-6-2-1-2 8h-1l-1-10h2v-2l-2-1z" fill="#FEFEFE"/>
<path transform="translate(364,733)" d="m0 0h6l1 1v7l-3 3h-6l-2-5 1-4z" fill="#382D74"/>
<path transform="translate(803,538)" d="m0 0 5 1 3 3-2 5-2 1h-7l-2-2 1-6z" fill="#E91789"/>
<path transform="translate(447,473)" d="m0 0 2 1h14l2 1v2l-9 3-7 4h-2l-1-4z" fill="#4F62B3"/>
<path transform="translate(653,433)" d="m0 0 2 8h-2l-2 5-10 15-4 4-3-1 3-5 7-8 6-10z" fill="#5664B7"/>
<path transform="translate(747,401)" d="m0 0 2 1 2 7v6l-4 2-1-1h-2v-2h-2v-8z" fill="#DFEDF4"/>
<path transform="translate(580,276)" d="m0 0 11 7 5 5-11 1-2-2v-3l-5-1v-5h2z" fill="#422473"/>
<path transform="translate(606,604)" d="m0 0 1 2-2 12-6 2h-4l1-4h2l2-6-2-1 5-4z" fill="#0E8ED1"/>
<path transform="translate(509,673)" d="m0 0h1l1 8v38h-1l-1-34-2-3-4-2v6h-1v-11z" fill="#13CEF1"/>
<path transform="translate(243,516)" d="m0 0h11l1 9h-11z" fill="#DEEDF4"/>
<path transform="translate(613,289)" d="m0 0 4 4 1 2 6 2 3 4-1 10v5l-2-1v-4l-4-2 3-1-4-8v-2h-2l-4-6z" fill="#2E145F"/>
<path transform="translate(456,662)" d="m0 0 4 4-1 4h1l1 14-2 2-5-10v-4l1-9z" fill="#0DC1E8"/>
<path transform="translate(267,439)" d="m0 0h1l1 6 12 2-4 2h-2v3l-7 2-3 3 1-13z" fill="#4D68B6"/>
<path transform="translate(198,666)" d="m0 0h5l2 2v7l-2 2h-5l-3-3 1-7z" fill="#FEFEFE"/>
<path transform="translate(225,381)" d="m0 0 5 2 1 6-4 3h-5l-2-2v-5z" fill="#FDCAE3"/>
<path transform="translate(735,634)" d="m0 0 5 1 2 2-1 5-3 2-7-1-1-5z" fill="#9241A6"/>
<path transform="translate(623,560)" d="m0 0 4 1-4 3v5l2 1v2l-9-1-3-3 1-5 8-2z" fill="#36216B"/>
<path transform="translate(719,484)" d="m0 0 18 1-3 3-11 2-15-1 3-2z" fill="#F81084"/>
<path transform="translate(320,600)" d="m0 0h4l2 11-9-2-2-1v-2l-3-1 3-3z" fill="#0DA7DF"/>
<path transform="translate(381,311)" d="m0 0h8l2 2-1 5-3 3-5-1-3-5z" fill="#FEFEFE"/>
<path transform="translate(546,632)" d="m0 0 2 1-1 12-6-1-2-2-1-7z" fill="#0D90D2"/>
<path transform="translate(651,587)" d="m0 0 5 3 6 7 6 4 2 3-1 4-7-5-3-6-6-2-2-4z" fill="#DEEDF4"/>
<path transform="translate(367,343)" d="m0 0 3 1 1 2v6l-2 3-5-1-2-2v-6z" fill="#E8F2F7"/>
<path transform="translate(752,623)" d="m0 0h5l2 2-1 6-3 3-5-1-1-5z" fill="#2F2F73"/>
<path transform="translate(277,750)" d="m0 0h6l-1 5-8 8-3-1 1-6z" fill="#DFEDF4"/>
<path transform="translate(669,282)" d="m0 0 8 6 3 3-1 4-2 1-2 3-2-2-2-4z" fill="#DEEDF4"/>
<path transform="translate(384,624)" d="m0 0 3 3 5-1 6 3 1 2-15 5-2-1 4-1-2-6z" fill="#12CCF0"/>
<path transform="translate(432,489)" d="m0 0h6l-2 3v-2l-5 5-9 8-2-1 4-5 1-5-11-1v-1z" fill="#4053AC"/>
<path transform="translate(725,371)" d="m0 0 1 4-4 2-8 10-9 9h-2l-1 3h-2l-2 6-2-1 2-5 19-19 7-8z" fill="#AC349D"/>
<path transform="translate(499,649)" d="m0 0h2v12l-2-4-3-1-14-1 2-2z" fill="#4452A9"/>
<path transform="translate(288,375)" d="m0 0 2 2-2 11-3 6h-3l-1 2-1-3z" fill="#5265B5"/>
<path transform="translate(455,659)" d="m0 0 4 1-3 3-1 9 1 4-3-1-3-7v-5l-7 1 2-2z" fill="#0997D6"/>
<path transform="translate(704,506)" d="m0 0h3l3 3-2 7-5 4-2-1 1-11z" fill="#2E1B64"/>
<path transform="translate(377,358)" d="m0 0h4l3 2-2 8h-2v2l-4-1v-4l-3-1v-2h2z" fill="#634EA7"/>
<path transform="translate(406,648)" d="m0 0 9 2 4 4-1 4-4 1-8-9z" fill="#0DA7E0"/>
<path transform="translate(385,612)" d="m0 0 3 1-4 3h-2v6l-3-1v-2l-12 1 4-4z" fill="#187EC7"/>
<path transform="translate(598,496)" d="m0 0 4 1-2 4-1 11-2 1v-5h-2l-1-4-2-1 2-5z" fill="#34246B"/>
<path transform="translate(694,558)" d="m0 0h22v1h-11v7l-5-3-3 1-3-1-1-4z" fill="#412976"/>
<path transform="translate(691,501)" d="m0 0h1v15l-2 10h-1v-8l-2-8 1-2-3-1z" fill="#242461"/>
<path transform="translate(594,456)" d="m0 0h2l-1 6-3 6-3 1-2-5-2-2 3-3z" fill="#F8FAFC"/>
<path transform="translate(592,499)" d="m0 0h2l-1 4 2 5h2l2 4 1 1v6l-3-1-3-8-1-3h-2v-2l-6-1 4-3z" fill="#282968"/>
<path transform="translate(677,490)" d="m0 0h12l-4 5-4 3h-4l-1-7z" fill="#35246D"/>
<path transform="translate(463,240)" d="m0 0 3 1-13 7h-2v2l-9 7-2-1 1-4 10-6 9-5z" fill="#DE1D8D"/>
<path transform="translate(674,218)" d="m0 0 2 1-1 2 3 5 1 8-5-2-3-9-2-1z" fill="#382671"/>
<path transform="translate(367,643)" d="m0 0 2 1-7 5-14 5h-2v-6l7-1 4 1z" fill="#DEEDF4"/>
<path transform="translate(342,514)" d="m0 0 4 2 1 6-2 2h-5l-2-6z" fill="#DEEDF4"/>
<path transform="translate(335,633)" d="m0 0h3l3 11-7-4v-2l-6 1v-3z" fill="#0DA3DD"/>
<path transform="translate(628,552)" d="m0 0 4 1-3 1 1 3 25 1-2 2-31-1v-3z" fill="#504FA8"/>
<path transform="translate(354,500)" d="m0 0h5l2 4v4l-6 1-3-4z" fill="#DEEDF4"/>
<path transform="translate(384,620)" d="m0 0h8l3 6 2 2-9-2-1 2-3-4z" fill="#08B7E5"/>
<path transform="translate(395,571)" d="m0 0h2l5 21v2h-2l-4-13-2-4-4-2 1-3z" fill="#4351AA"/>
<path transform="translate(621,472)" d="m0 0h5v3h2v3h-2l-2 4-2 1-3-7-1-2z" fill="#1B8ACF"/>
<path transform="translate(346,296)" d="m0 0 2 1-10 10v5l-3 4h-4l1-5 12-13z" fill="#7B52B0"/>
<path transform="translate(653,732)" d="m0 0 6 1v5l-2 2h-5l-2-5z" fill="#33377D"/>
<path transform="translate(442,643)" d="m0 0 5 1 3 3 6 1v1h-11l-3 1-1 2-1-8z" fill="#0A8FD2"/>
<path transform="translate(602,621)" d="m0 0h1v6l-2 2-9-1v-4h2l1-2 1 1z" fill="#0D9AD7"/>
<path transform="translate(682,619)" d="m0 0 4 1 9 9v2l2 1-3 1-6-5-6-7z" fill="#E1EEF5"/>
<path transform="translate(377,585)" d="m0 0 1 4 6 1-1 4-1 3 2 2-5 2-1-4-1-3z" fill="#60D8F1"/>
<path transform="translate(368,389)" d="m0 0 7 1 1 6-3-3-4 5h-4v-5h2z" fill="#7875C3"/>
<path transform="translate(611,525)" d="m0 0h1v10l-3-3-4 6h-1v-9z" fill="#6863B8"/>
<path transform="translate(450,642)" d="m0 0 7 2 31 1v1l-27 1-8 1z" fill="#4856AD"/>
<path transform="translate(339,610)" d="m0 0 1 2h7l5 1-3 2-6 3h-4l-2-7zm5 3 1 2z" fill="#0BBBE7"/>
<path transform="translate(377,650)" d="m0 0 4 1v7h-5v-3l-4 1-1-3z" fill="#177FC8"/>
<path transform="translate(372,338)" d="m0 0 6 1 1 5-3 3-6-5z" fill="#6460B7"/>
<path transform="translate(357,327)" d="m0 0 2 1-1 1-1 9h-3l-1 4-5 2 2-5z" fill="#6456AF"/>
<path transform="translate(475,708)" d="m0 0 5 5 1 3 4 2v2l-5-1-8-6 3-1z" fill="#0EBBE7"/>
<path transform="translate(725,559)" d="m0 0h9l-1 6-2 5h-1l-3-9h-2z" fill="#262866"/>
<path transform="translate(672,490)" d="m0 0h5v8l3 1-7 3z" fill="#7556B2"/>
<path transform="translate(738,540)" d="m0 0h1l-1 9-1 3h-4l1-9z" fill="#36246E"/>
<path transform="translate(740,408)" d="m0 0h2l3 16v5l-2-1-3-15-3-1z" fill="#A9369F"/>
<path transform="translate(459,670)" d="m0 0h1l1 14-2 2-4-8 3-5z" fill="#08B6E4"/>
<path transform="translate(695,539)" d="m0 0 1 2-4 7-9 4 1-4 9-7z" fill="#D9EAF3"/>
<path transform="translate(346,474)" d="m0 0h3l2 6-1 1h-7v-2h-2l1-2z" fill="#1977C4"/>
<path transform="translate(539,700)" d="m0 0 1 4-4 7h-3l-1 4-1-4 4-6 1-3h3z" fill="#2A6DBC"/>
<path transform="translate(690,548)" d="m0 0h2v3l-3 3-6 2-2-4z" fill="#0B90D3"/>
<path transform="translate(746,492)" d="m0 0 1 4-1 8h-1l-1-6-4 2-7 7-2-1 10-10z" fill="#2F498E"/>
<path transform="translate(715,434)" d="m0 0 2 1-13 13-1 6-2-1-1-4z" fill="#4E2A7B"/>
<path transform="translate(715,553)" d="m0 0h14l-3 1v2l2 1h-8l-5-3z" fill="#4177C3"/>
<path transform="translate(660,489)" d="m0 0h9l3 1v3l-15-1v-2z" fill="#3E2170"/>
<path transform="translate(511,465)" d="m0 0h1v16l-5-2 1-5 2-2z" fill="#4672C0"/>
<path transform="translate(739,409)" d="m0 0m-1 1m-2 1 2 1-1 3h-2l-2 4-4 4-2-1z" fill="#973EA5"/>
<path transform="translate(427,285)" d="m0 0v3l-10 17-3 2 2-6 10-15z" fill="#AA369F"/>
<path transform="translate(736,552)" d="m0 0 1 2-1 4-10-2v-2z" fill="#DEEDF4"/>
<path transform="translate(690,461)" d="m0 0 1 4-1 5-7 1 1-4z" fill="#8D44A9"/>
<path transform="translate(610,297)" d="m0 0 5 3 4 3-2-5h2l4 7v3l-4-2-9-7z" fill="#8842A5"/>
<path transform="translate(293,567)" d="m0 0 5 1 1 4-1 3h-3v-2h-3v-5z" fill="#5BD9F2"/>
<path transform="translate(644,482)" d="m0 0 3 1h-2l-2 5-4 3v-2h-3l2-4z" fill="#DEEDF4"/>
<path transform="translate(670,425)" d="m0 0 3 1-11 9-7 6 2-4 9-9zm-17 16 2 1z" fill="#602D83"/>
<path transform="translate(614,616)" d="m0 0 4 1-1 5-4 1-2-2 1-4z" fill="#DEEDF4"/>
<path transform="translate(597,608)" d="m0 0 2 1 1 4-2 3h-2l-1 5-1-4 1-6-2-1z" fill="#4D66B5"/>
<path transform="translate(220,579)" d="m0 0h5v8h-4l-1-2z" fill="#DFEDF4"/>
<path transform="translate(371,364)" d="m0 0h5l1 4-6 4-1-1z" fill="#989FD4"/>
<path transform="translate(672,475)" d="m0 0h1v5l2 1-1 1-9 1 2-4z" fill="#613991"/>
<path transform="translate(381,313)" d="m0 0h8l-1 4-5 2v-2h-2z" fill="#DEEDF4"/>
<path transform="translate(512,712)" d="m0 0 2 1v3l3 1-1 3-5 2v-9z" fill="#0CC0E8"/>
<path transform="translate(414,490)" d="m0 0h10l3 2-1 7-4 4-2-1 4-5 1-5-11-1z" fill="#5161B2"/>
<path transform="translate(610,490)" d="m0 0h2v4l2 1-5 3-3-5z" fill="#272664"/>
<path transform="translate(427,331)" d="m0 0 4 5 5 4h-3l1 6-2 4-2-1 1-9-3-4v-2h-2z" fill="#DEEDF4"/>
<path transform="translate(416,334)" d="m0 0h4v2h-2l2 11h-2v-3l-2-1-1-4z" fill="#DEEDF4"/>
<path transform="translate(545,638)" d="m0 0h2v7l-6-1v-3z" fill="#1977C4"/>
<path transform="translate(570,572)" d="m0 0h2l-5 10v4l-4 1 3-9 2-5z" fill="#DEEDF4"/>
<path transform="translate(308,540)" d="m0 0h1l2 10-1 4-1-3-2-1-2-6z" fill="#10C8ED"/>
<path transform="translate(605,279)" d="m0 0 6 5 2 3v3l-4-2-1-4-4-2-1-2z" fill="#452071"/>
<path transform="translate(347,553)" d="m0 0 4 1 1 5-4 1-2-2z" fill="#10C8ED"/>
<path transform="translate(248,485)" d="m0 0h4l1 8h-3l-2-3z" fill="#DEEDF4"/>
<path transform="translate(373,393)" d="m0 0 2 2v7l-2 4-2-7v-4z" fill="#5052A9"/>
<path transform="translate(553,710)" d="m0 0m-1 1m-1 1m-2 1 2 1-2 2 1 2-6 2h-5l4-3z" fill="#1293D3"/>
<path transform="translate(664,599)" d="m0 0 4 2 2 3-1 4-6-5z" fill="#FDFDFD"/>
<path transform="translate(639,544)" d="m0 0 2 1-4 6-7 1 5-5z" fill="#262B6A"/>
<path transform="translate(372,374)" d="m0 0 3 1v6l-4 1-1-6z" fill="#DEEDF4"/>
<path transform="translate(484,240)" d="m0 0 2 1-4 3-12 4-2-1 10-5z" fill="#B2329C"/>
<path transform="translate(835,773)" d="m0 0 5 1 7 8h-3l-9-8z" fill="#DEEDF4"/>
<path transform="translate(619,558)" d="m0 0 4 1-2 4-3-1-1 2v-2l-5 2 4-4z" fill="#272C6D"/>
<path transform="translate(281,450)" d="m0 0h2v5l-2 2h-3l-1-6z" fill="#73DAF1"/>
<path transform="translate(408,351)" d="m0 0 4 1 2 2-1 4-5-2z" fill="#8057B5"/>
<path transform="translate(358,527)" d="m0 0 4 2v4l-4 1-2-5z" fill="#DEEDF4"/>
<path transform="translate(638,458)" d="m0 0h3l-1 5-3 2-3-1 3-5z" fill="#277EC7"/>
<path transform="translate(471,703)" d="m0 0h2l2 4v5h-5v-3l2-1z" fill="#0A9EDA"/>
<path transform="translate(712,483)" d="m0 0h8l-3 3-9 2z" fill="#7958B4"/>
<path transform="translate(578,484)" d="m0 0 2 1-4 4h-2l-2 4-2-3 6-5z" fill="#37216C"/>
<path transform="translate(704,461)" d="m0 0h1l2 10-1 5-2 1z" fill="#592B7F"/>
<path transform="translate(660,408)" d="m0 0h1v9l4-1-3 4h-3l-1 2z" fill="#8846AA"/>
<path transform="translate(571,260)" d="m0 0 7 1 1 3h-2v-2l-4 1 1 8-3-1z" fill="#462374"/>
<path transform="translate(355,671)" d="m0 0 4 1 5 6-1 3v-2l-4-2-1-3h-2z" fill="#0DB4E5"/>
<path transform="translate(207,617)" d="m0 0 2 2-3 4-4 1v-5z" fill="#E0EEF4"/>
<path transform="translate(721,476)" d="m0 0 1 2-1 2 2 1-1 2h-7z" fill="#2B125C"/>
<path transform="translate(323,639)" d="m0 0h2l-2 5 1 5-5-4 1-4z" fill="#0FC5EC"/>
<path transform="translate(688,559)" d="m0 0 4 2-1 5-3 1z" fill="#4AC1E7"/>
<path transform="translate(690,458)" d="m0 0 1 2-7 8-3-1z" fill="#563084"/>
<path transform="translate(330,438)" d="m0 0 4 1-1 5h-4z" fill="#DEEDF4"/>
<path transform="translate(670,344)" d="m0 0h2l1 13-2-1-1-3z" fill="#FA1084"/>
<path transform="translate(372,338)" d="m0 0 4 1 1 5-4-1-2-4z" fill="#DEEDF4"/>
<path transform="translate(216,396)" d="m0 0h2l1 3-1 2-3-1z" fill="#FEFEFE"/>
</svg>
