<svg width="200" height="200" viewBox="0 0 200 200" xmlns="http://www.w3.org/2000/svg">
  <style>
    .globe {
      fill: url(#globe-pattern);
      stroke: #fff;
      stroke-width: 2;
    }
    .note {
      fill: #fff;
      stroke: #000;
      stroke-width: 2;
    }
    .music-lines {
      stroke: #fff;
      stroke-width: 1;
    }
  </style>
  <defs>
    <pattern id="globe-pattern" x="0" y="0" width="20" height="20" patternUnits="userSpaceOnUse">
      <rect x="0" y="0" width="20" height="20" fill="url(#gradient)"/>
      <circle cx="10" cy="10" r="5" fill="#999"/>
    </pattern>
    <linearGradient id="gradient" x1="0%" y1="0%" x2="100%" y2="0%">
      <stop offset="0%" style="stop-color:rgb(148,159,236);stop-opacity:1" />
      <stop offset="100%" style="stop-color:rgb(173,216,230);stop-opacity:1" />
    </linearGradient>
  </defs>
  <circle class="globe" cx="100" cy="100" r="90"/>
  <path class="note" d="M100 30 Q100 50 110 70 T130 100 Q130 110 120 120 T100 130 Q100 140 110 150 T130 170"/>
  <line class="music-lines" x1="50" y1="70" x2="150" y2="70" />
  <line class="music-lines" x1="50" y1="90" x2="150" y2="90" />
  <line class="music-lines" x1="50" y1="110" x2="150" y2="110" />
  <line class="music-lines" x1="50" y1="130" x2="150" y2="130" />
  <line class="music-lines" x1="50" y1="150" x2="150" y2="150" />
</svg>
